<?xml version="1.0" standalone="no"?>
<!DOCTYPE svg PUBLIC "-//W3C//DTD SVG 20010904//EN"
 "http://www.w3.org/TR/2001/REC-SVG-20010904/DTD/svg10.dtd">
<svg version="1.0" xmlns="http://www.w3.org/2000/svg"
 width="864.000000pt" height="864.000000pt" viewBox="0 0 864.000000 864.000000"
 preserveAspectRatio="xMidYMid meet">
<metadata>
Created by potrace 1.11, written by Peter Selinger 2001-2013
</metadata>
<g transform="translate(0.000000,864.000000) scale(0.100000,-0.100000)"
fill="#000000" stroke="none">
<path d="M4573 8562 c-12 -2 -32 -14 -45 -27 -17 -18 -29 -22 -55 -18 -21 4
-41 0 -58 -11 -14 -9 -31 -13 -38 -9 -16 9 -81 4 -85 -8 -2 -5 -10 -9 -17 -9
-10 0 -25 -31 -29 -62 -2 -13 -14 -19 -51 -22 -23 -1 -43 -10 -51 -21 -16 -21
-19 -71 -5 -79 13 -8 -55 -76 -76 -76 -37 0 -58 -25 -57 -69 1 -34 -2 -41 -18
-41 -12 0 -19 6 -17 18 1 9 1 32 0 49 -2 61 -79 85 -154 48 -30 -14 -41 -15
-47 -6 -4 7 -23 13 -42 13 -30 0 -36 4 -47 33 -13 37 -50 57 -108 58 l-38 1
-2 55 c-1 44 -6 58 -25 73 -33 27 -125 21 -158 -10 -21 -20 -25 -20 -40 -7
-19 17 -77 20 -116 5 -23 -9 -31 -7 -54 15 -72 69 -192 37 -202 -54 -4 -31 -8
-35 -37 -37 -36 -3 -67 -26 -76 -55 -4 -12 -16 -19 -30 -19 -37 0 -55 -10 -55
-32 0 -22 -26 -53 -34 -40 -3 4 -7 28 -10 52 -7 61 -31 82 -94 82 -28 -1 -64
-8 -80 -16 -21 -11 -38 -13 -58 -7 -63 18 -129 -15 -129 -65 -1 -28 -2 -29
-51 -29 -52 0 -89 -18 -80 -40 3 -9 -10 -12 -48 -11 -37 1 -57 -4 -69 -16 -22
-22 -38 -64 -31 -83 4 -9 0 -15 -10 -15 -21 0 -39 -36 -30 -63 8 -24 5 -31
-12 -33 -6 -1 -21 -5 -32 -8 -13 -4 -24 -2 -29 7 -11 19 -63 44 -88 41 -79 -7
-128 -25 -149 -55 -15 -22 -16 -22 -58 -6 -59 23 -71 22 -103 -10 -22 -22 -26
-34 -22 -60 l6 -33 -45 5 c-38 5 -47 2 -67 -19 -24 -25 -28 -50 -14 -74 6 -9
0 -10 -25 -5 -18 3 -35 7 -37 9 -2 2 -12 -1 -22 -7 -12 -6 -19 -21 -19 -41 0
-24 -3 -28 -13 -20 -24 21 -87 -7 -87 -38 0 -22 -16 -35 -25 -20 -11 19 -89
48 -114 43 -53 -9 -73 -50 -42 -86 9 -12 10 -21 2 -36 -23 -41 2 -111 39 -111
10 0 26 -3 35 -6 13 -5 10 -10 -14 -25 -69 -42 -14 -114 78 -103 25 3 50 8 55
12 6 3 5 -2 -3 -11 -8 -10 -16 -15 -19 -12 -3 3 -12 -1 -21 -9 -9 -8 -37 -16
-63 -19 -118 -14 -181 -75 -126 -122 l25 -21 -73 0 c-89 0 -111 -15 -109 -72
1 -22 -6 -46 -16 -60 -15 -19 -16 -28 -7 -55 6 -18 18 -36 26 -41 12 -7 8 -11
-19 -20 -29 -10 -34 -15 -32 -40 1 -16 7 -33 14 -36 6 -5 0 -10 -15 -14 -28
-7 -42 -41 -32 -73 8 -25 78 -64 115 -65 26 -1 28 -3 21 -24 -8 -19 -4 -27 17
-44 14 -11 28 -20 32 -21 3 -1 18 -2 34 -3 28 -3 41 -11 43 -27 1 -5 2 -13 3
-19 1 -11 66 -41 93 -43 23 -2 44 -56 22 -58 -7 -1 -18 -3 -24 -4 -5 -1 -14
-3 -19 -4 -20 -2 -41 -34 -41 -61 0 -23 -4 -28 -20 -25 -11 2 -22 -1 -25 -6
-4 -5 -19 0 -36 12 -17 12 -45 21 -66 21 -19 0 -50 9 -68 19 -42 25 -107 34
-136 18 -26 -13 -50 -35 -49 -44 2 -29 -1 -45 -8 -41 -4 2 -22 -2 -40 -11 -22
-11 -32 -22 -32 -39 0 -18 -5 -22 -21 -19 -27 5 -68 -11 -74 -30 -3 -8 -7 -22
-10 -31 -4 -11 -9 -13 -18 -7 -38 28 -107 3 -107 -38 0 -10 -4 -20 -8 -23 -5
-3 -8 -15 -6 -28 1 -13 3 -26 3 -31 1 -4 12 -13 26 -19 18 -8 24 -16 19 -27
-11 -28 1 -91 19 -103 8 -5 4 -8 -10 -8 -12 0 -28 8 -35 18 -22 29 -51 39 -88
31 -45 -10 -62 -34 -58 -84 l3 -40 -38 4 c-55 5 -81 -21 -74 -73 3 -21 11 -42
18 -46 15 -10 3 -30 -19 -30 -21 0 -57 -29 -65 -51 -3 -10 5 -27 22 -43 21
-21 39 -27 77 -29 69 -3 92 -27 55 -59 -10 -8 -20 -21 -23 -28 -2 -6 -26 -12
-56 -14 -66 -2 -87 -21 -85 -77 1 -23 9 -49 18 -59 15 -17 15 -19 -4 -25 -19
-6 -21 -14 -21 -75 0 -75 7 -84 68 -80 41 3 45 1 32 -15 -8 -9 -10 -28 -6 -49
7 -39 46 -61 96 -54 16 3 30 0 30 -4 0 -23 33 -40 81 -41 47 -2 50 -4 45 -24
-3 -13 -9 -34 -12 -47 -9 -36 26 -66 76 -66 28 0 40 -4 40 -14 0 -20 39 -46
67 -46 16 0 23 -6 23 -18 0 -25 23 -55 46 -59 51 -10 75 -9 100 3 41 22 55 18
48 -11 -7 -29 7 -38 67 -39 50 -1 49 -9 -2 -26 -22 -8 -45 -22 -50 -32 -5 -10
-8 -18 -7 -19 23 -6 51 -9 90 -11 37 -1 45 -4 37 -14 -6 -7 -23 -15 -38 -19
-29 -6 -58 -49 -41 -60 5 -3 22 -3 37 0 15 3 44 8 63 10 l35 5 -31 -14 c-32
-14 -51 -43 -37 -57 15 -15 87 -17 138 -4 27 7 53 11 56 9 4 -2 -8 -20 -27
-39 -34 -36 -36 -61 -6 -67 21 -5 165 16 194 27 12 5 14 1 11 -17 -7 -39 32
-48 117 -27 11 3 15 -3 14 -20 -1 -14 3 -30 10 -36 21 -21 105 -8 134 22 13
12 16 11 26 -8 6 -13 26 -27 46 -32 31 -8 37 -6 61 20 22 25 30 28 50 20 61
-23 172 3 208 50 19 24 19 24 26 2 7 -22 5 -22 111 -3 18 3 34 2 37 -3 3 -5
-9 -10 -26 -11 -37 -3 -99 -33 -105 -50 -4 -14 72 -51 106 -52 12 0 22 -4 22
-8 0 -5 -6 -9 -12 -9 -25 0 -128 -55 -128 -68 0 -27 29 -38 90 -32 34 4 65 9
70 12 23 14 7 -13 -19 -32 -56 -42 -17 -99 59 -86 19 3 41 6 48 6 6 0 12 3 12
6 0 3 16 7 35 8 l35 2 -17 -25 c-26 -41 15 -66 66 -40 14 7 39 16 55 20 27 7
28 5 22 -18 -5 -21 -1 -28 23 -41 17 -8 40 -13 53 -11 13 3 23 5 23 6 0 1 23
3 51 6 47 4 52 3 57 -18 4 -13 15 -33 27 -45 11 -12 20 -26 20 -30 0 -12 64
-53 84 -53 16 0 15 -3 -5 -31 -29 -41 -17 -77 31 -101 34 -16 107 -31 123 -26
4 2 21 -21 37 -51 39 -70 96 -146 151 -199 24 -24 54 -52 67 -65 12 -12 22
-19 22 -15 0 4 12 -4 26 -17 15 -14 33 -25 40 -25 8 0 14 -4 14 -8 0 -4 47
-32 105 -60 104 -53 105 -53 187 -160 45 -59 85 -109 88 -112 3 -3 16 -22 30
-42 14 -21 28 -38 33 -38 4 0 7 -6 7 -14 0 -8 3 -16 8 -18 6 -3 72 -89 112
-148 8 -12 27 -36 42 -54 15 -17 30 -39 34 -48 3 -10 9 -18 13 -18 4 0 13 -11
19 -25 7 -14 16 -31 22 -38 20 -24 59 -87 54 -87 -3 0 3 -12 14 -27 19 -28 72
-136 72 -147 0 -4 9 -25 19 -49 19 -42 50 -133 56 -165 2 -9 4 -17 5 -17 2 0
7 -25 23 -118 13 -72 15 -301 4 -367 -5 -26 -14 -70 -21 -105 -8 -38 -57 -190
-73 -225 -90 -204 -162 -326 -220 -377 -31 -27 -171 -116 -187 -119 -22 -4
-81 -34 -61 -32 11 1 26 -1 34 -6 10 -6 12 -5 7 2 -4 7 -3 12 3 12 5 0 13 -5
16 -10 4 -6 11 -7 18 -3 15 9 57 10 51 1 -3 -4 5 -9 18 -10 37 -2 42 -3 57
-12 10 -7 12 -5 6 3 -5 9 -1 12 11 11 11 -1 21 -1 24 0 24 9 38 6 33 -6 -3 -8
-9 -11 -14 -8 -5 3 -12 -2 -15 -10 -3 -9 -12 -16 -20 -16 -8 0 -14 -5 -14 -11
0 -5 -4 -8 -9 -5 -5 4 -11 3 -13 -2 -6 -14 -98 -63 -107 -57 -5 3 -12 1 -15
-3 -3 -5 16 -8 42 -6 26 1 47 3 47 4 0 1 12 4 28 6 18 2 25 -1 21 -8 -4 -7 -2
-8 4 -4 7 4 12 14 12 21 0 10 9 14 25 13 16 -2 24 -7 21 -15 -3 -7 -1 -13 4
-13 6 0 10 7 10 15 0 8 5 15 11 15 6 0 8 -9 4 -22 -6 -22 -5 -22 6 -3 16 27
31 36 44 26 5 -5 19 -7 30 -5 11 1 23 -2 27 -9 6 -9 8 -9 8 1 0 6 8 12 18 12
10 0 24 6 31 12 6 7 17 13 24 13 7 1 11 6 10 13 -2 6 4 9 13 5 16 -6 13 -29
-4 -26 -5 1 -13 -4 -16 -13 -4 -12 -2 -12 14 -4 10 6 24 18 29 28 6 9 11 12
11 5 0 -6 9 -10 20 -8 18 3 19 1 9 -18 l-12 -22 25 22 c19 18 27 20 37 10 6
-6 17 -12 24 -12 7 -1 11 -7 9 -15 -3 -11 0 -11 12 0 18 14 22 0 6 -16 -7 -7
-6 -11 4 -11 8 0 14 5 13 11 -1 6 7 11 18 11 11 1 26 4 33 8 6 5 12 4 12 -1 0
-5 7 -9 15 -9 8 0 15 3 15 7 0 3 9 6 19 7 13 1 18 -3 14 -13 -3 -7 -9 -12 -13
-9 -5 3 -11 1 -14 -4 -12 -19 25 -4 39 16 16 23 10 32 -18 28 -14 -3 -16 0 -7
10 12 14 40 10 40 -5 0 -5 9 -7 20 -5 11 2 20 -1 20 -7 0 -5 7 -8 14 -5 10 4
13 1 10 -8 -10 -24 5 -36 28 -24 14 7 23 8 30 1 6 -6 17 -8 24 -5 8 3 14 -1
14 -11 0 -19 11 -21 28 -4 8 8 12 8 12 1 0 -6 7 -14 16 -17 9 -4 13 -2 8 5
-11 18 18 29 31 12 10 -13 14 -13 20 -3 5 8 4 11 -2 7 -6 -4 -13 0 -17 8 -3 8
-11 12 -19 9 -10 -3 -12 4 -9 28 2 18 4 44 4 57 0 17 2 20 8 11 5 -8 7 -29 4
-48 -4 -29 -2 -33 10 -23 8 7 12 20 9 29 -4 14 -3 15 5 2 6 -8 8 -18 5 -24 -4
-5 1 -7 10 -3 9 3 23 -1 31 -9 9 -8 18 -15 21 -14 3 0 6 0 8 -1 1 0 11 -2 22
-4 10 -2 28 -14 38 -27 10 -13 16 -16 12 -8 -4 8 1 6 9 -4 14 -17 16 -17 16
-4 0 9 -5 20 -10 23 -6 4 -8 10 -5 15 3 5 -2 16 -11 24 -8 9 -10 16 -4 16 7 0
8 6 0 19 -11 22 8 24 33 2 9 -7 22 -14 29 -15 7 -1 19 -5 25 -9 7 -5 17 -6 22
-2 5 3 16 -2 24 -10 17 -16 32 -21 23 -7 -3 5 1 9 9 9 8 0 12 -4 9 -8 -2 -4 8
-7 23 -7 47 1 55 -1 47 -15 -5 -8 -2 -7 9 2 14 11 23 12 43 2 15 -6 23 -7 19
-1 -3 5 -1 10 4 10 6 0 11 -5 11 -10 0 -13 32 -9 43 5 6 6 10 5 14 -3 4 -10 8
-10 20 -1 12 10 16 10 24 -2 7 -12 9 -12 9 1 0 12 2 13 9 1 5 -7 14 -10 20 -6
7 4 18 1 26 -5 9 -8 15 -8 15 -2 0 5 9 8 20 5 11 -3 18 -8 16 -12 -6 -10 51
-7 61 3 4 4 1 6 -7 4 -8 -1 -14 3 -12 10 1 6 -1 11 -5 11 -23 -4 -43 2 -38 11
5 8 -29 15 -38 8 -8 -7 -38 33 -32 42 3 6 -1 7 -9 4 -9 -3 -13 -11 -9 -17 3
-6 1 -7 -5 -3 -6 4 -8 14 -5 24 6 15 5 15 -11 3 -12 -10 -20 -11 -28 -3 -7 7
-17 8 -27 2 -13 -6 -17 -4 -17 10 0 14 4 16 12 9 8 -7 14 -6 17 3 4 10 6 10 6
-1 1 -11 4 -11 16 -1 12 10 15 10 15 0 0 -10 3 -10 15 0 14 12 19 7 16 -15 -1
-5 6 -1 14 9 8 11 15 14 15 7 0 -7 5 -9 12 -4 18 11 68 13 68 3 0 -5 -9 -7
-20 -5 -11 2 -18 0 -15 -5 3 -5 -4 -7 -15 -5 -12 2 -18 0 -15 -6 4 -5 3 -8 -2
-7 -4 2 -9 0 -10 -4 -2 -5 0 -8 5 -9 4 0 13 -6 21 -12 10 -8 13 -8 8 -1 -4 6
2 19 12 28 13 11 21 14 26 7 3 -6 2 -11 -3 -11 -5 0 -9 -7 -9 -16 0 -15 2 -14
13 1 8 10 11 22 8 26 -3 5 0 9 5 9 6 0 11 -5 11 -12 0 -6 3 -8 6 -5 4 4 1 13
-6 22 -7 9 -10 18 -6 22 3 3 6 1 6 -5 0 -7 5 -12 11 -12 5 0 8 4 5 8 -7 12 41
9 51 -2 4 -5 3 -6 -4 -2 -6 3 -14 2 -18 -4 -4 -6 -11 -8 -16 -5 -5 4 -9 1 -9
-4 0 -14 17 -14 25 -2 3 6 14 8 25 6 12 -2 17 1 14 10 -3 7 0 16 6 20 6 3 10
3 9 -2 -1 -4 -1 -15 1 -23 1 -11 4 -9 10 5 7 16 9 17 9 3 1 -9 5 -19 10 -22 5
-4 7 3 4 14 -4 16 -1 18 18 15 12 -3 26 -10 31 -17 4 -7 8 -8 8 -2 0 5 -6 16
-12 23 -8 8 0 7 20 -4 19 -9 36 -14 40 -11 3 3 0 6 -7 6 -7 0 -9 5 -6 10 4 7
11 7 18 2 12 -10 51 -13 42 -3 -7 6 -35 12 -58 12 -9 0 -15 4 -12 9 3 4 -2 11
-10 14 -13 5 -14 2 -5 -15 10 -18 9 -19 -8 -8 -12 7 -19 21 -17 31 2 10 0 16
-6 13 -5 -4 -7 -11 -4 -16 4 -5 -1 -9 -10 -9 -10 0 -13 5 -9 13 5 7 0 6 -11
-3 -17 -14 -18 -13 -12 2 3 10 1 20 -5 24 -6 4 -8 3 -5 -2 3 -6 2 -16 -4 -24
-6 -11 -9 -7 -9 14 0 27 -1 28 -13 12 -14 -19 -34 -18 -54 1 -22 20 -14 24 11
8 16 -11 26 -13 31 -5 3 6 3 10 -2 9 -16 -4 -43 13 -37 23 3 5 -3 4 -14 -3
-12 -7 -18 -17 -15 -22 3 -5 -4 -4 -16 2 -11 7 -21 16 -21 21 0 6 -8 10 -18
10 -10 0 -27 8 -38 18 -10 10 -44 31 -74 46 -76 38 -91 53 -123 118 -23 48
-78 235 -93 318 -26 142 -36 201 -50 310 -16 122 -9 546 11 650 2 14 7 41 11
60 3 19 7 40 8 45 1 6 8 40 16 78 7 37 18 67 22 67 5 0 7 4 4 8 -11 18 64 228
133 376 43 92 170 313 194 337 7 8 23 31 36 52 13 21 28 43 34 50 7 6 24 28
38 47 15 19 37 46 49 60 12 14 38 45 58 69 70 85 280 290 403 393 24 21 54 46
66 56 12 10 34 27 48 38 15 10 39 29 53 42 15 13 39 30 55 38 15 8 27 18 27
22 0 13 76 48 180 82 238 78 391 178 523 338 l27 33 10 -23 c32 -70 60 -107
77 -101 7 3 31 -2 53 -11 30 -12 46 -13 60 -6 26 14 29 13 23 -10 -5 -19 9
-26 40 -21 4 0 7 -5 7 -12 0 -19 29 -42 67 -55 25 -8 34 -8 44 4 6 8 9 17 6
21 -6 6 37 33 53 33 4 0 11 -11 14 -25 5 -18 17 -27 46 -35 21 -6 42 -14 45
-19 9 -16 46 1 57 25 11 23 38 34 38 15 0 -13 37 -20 49 -8 6 6 15 4 26 -7 27
-27 85 -18 85 13 0 9 6 23 12 29 10 10 10 15 -2 22 -8 5 -13 10 -10 11 3 0 23
3 45 5 39 4 59 22 60 54 0 8 6 25 13 37 11 19 16 21 39 12 19 -7 31 -6 49 6
13 8 32 15 42 15 11 0 25 6 31 14 10 11 7 18 -11 30 l-23 16 30 -5 c31 -6 50
4 105 55 25 23 28 24 44 8 16 -14 22 -15 50 -3 18 8 46 16 61 19 15 3 39 13
54 23 14 9 41 18 60 20 38 3 51 12 55 37 1 9 12 25 24 36 12 12 22 31 22 44 0
18 8 25 33 32 l32 10 2 94 c3 103 0 110 -54 110 -20 0 -37 7 -46 20 -12 18
-23 20 -91 17 l-76 -3 16 23 c8 13 14 33 12 45 -2 14 3 22 16 24 51 7 62 14
64 38 1 14 13 36 27 51 18 17 24 31 20 45 -5 14 -2 20 9 20 9 0 25 9 37 21 22
22 19 55 -8 76 -11 9 -13 16 -6 25 15 19 7 50 -18 69 -13 10 -24 29 -25 44 -2
41 -28 60 -85 61 -27 0 -55 6 -61 12 -15 15 -47 15 -77 -2 -14 -8 -37 -10 -60
-6 -20 3 -50 3 -68 0 -17 -4 -47 -2 -67 5 -19 7 -38 11 -41 9 -3 -2 -3 -1 0 3
3 3 21 7 41 9 48 3 92 22 99 44 8 24 -11 70 -30 71 -28 3 -33 4 -39 10 -4 4 7
12 24 19 46 19 52 77 12 123 -13 15 -14 22 -4 38 11 17 9 23 -12 44 -42 41
-95 31 -148 -29 -15 -17 -28 -26 -28 -19 0 6 5 15 10 18 17 11 11 64 -9 82
-14 11 -17 22 -12 37 11 29 6 55 -19 88 -19 26 -19 30 -5 44 8 8 15 29 15 45
0 37 -48 89 -82 89 -33 0 -48 18 -41 51 7 35 -33 78 -74 81 -46 2 -51 3 -58
10 -13 13 -11 103 2 131 18 36 0 76 -42 97 -23 11 -29 21 -27 38 6 37 -22 68
-67 76 -32 5 -39 10 -36 24 5 29 -23 78 -53 92 -33 16 -60 20 -139 23 -34 2
-64 5 -65 7 -2 3 -8 14 -14 25 -15 28 -68 43 -118 34 -36 -7 -44 -4 -68 18
-22 21 -38 26 -83 27 -30 1 -55 4 -55 9 0 4 4 7 9 7 20 0 42 32 35 54 -9 31
-45 66 -68 67 -16 1 -13 4 10 11 17 5 36 18 42 29 10 15 8 22 -10 39 -13 11
-41 26 -63 33 -22 7 -41 17 -41 22 -1 6 -4 22 -8 38 -6 24 -3 27 17 27 13 0
32 9 41 19 20 22 24 87 7 104 -8 8 -1 20 26 44 20 18 34 33 30 33 -3 0 -3 10
2 22 24 64 -66 163 -136 149 -7 -1 -13 7 -13 19 0 46 -66 101 -105 87 -20 -8
-28 9 -32 62 -3 60 -29 85 -85 85 -39 0 -46 4 -71 38 -32 45 -74 52 -106 16
-17 -18 -21 -19 -26 -5 -9 22 -57 39 -95 33 -17 -2 -33 -6 -34 -8 -2 -2 -10
-14 -19 -28 -20 -29 -83 -38 -71 -10 4 8 8 35 11 60 3 37 0 50 -20 75 -26 31
-27 32 -162 25 -16 0 -50 -1 -73 -1 -79 2 -129 -56 -104 -121 7 -20 7 -26 0
-22 -6 4 -26 7 -45 6 -26 -1 -36 3 -42 21 -23 59 -101 90 -148 59 -13 -8 -25
-29 -29 -48 -7 -36 -16 -42 -31 -21 -11 15 -11 47 1 65 4 8 10 42 13 76 6 78
-12 99 -82 98 -44 -1 -45 -1 -45 32 0 46 -34 76 -88 76 -43 0 -92 -17 -92 -32
0 -5 -12 -1 -26 9 -41 26 -99 28 -123 4 l-21 -21 -6 25 c-3 13 -3 29 1 34 9
16 -24 80 -51 97 -23 16 -61 19 -103 10 -16 -4 -33 2 -53 19 -35 29 -92 33
-126 9 -21 -14 -24 -14 -41 7 -10 12 -24 24 -32 25 -45 9 -56 10 -76 6z m1927
-3962 c0 -5 9 -19 21 -31 l21 -21 -27 -41 c-29 -45 -123 -137 -140 -137 -6 0
-22 -11 -37 -25 -41 -38 -157 -113 -223 -145 -75 -36 -214 -82 -226 -74 -5 3
-9 1 -9 -5 0 -7 -16 -8 -38 -2 -1 1 16 37 38 81 28 56 48 84 65 90 16 6 25 17
25 30 0 19 4 20 49 15 41 -4 52 -2 60 12 7 13 22 18 55 18 48 1 86 25 86 55 0
10 9 20 20 23 13 3 20 14 20 31 0 18 4 24 14 20 17 -7 59 32 51 46 -7 11 4 13
52 10 25 -1 36 5 54 29 22 30 69 44 69 21z m210 -77 c0 -9 -42 -53 -50 -53
-15 0 3 49 19 53 26 7 31 7 31 0z m67 -117 c-5 -13 -69 -46 -115 -61 -23 -7
-23 -6 -17 47 4 29 9 56 11 60 2 3 27 5 54 4 28 -2 54 2 58 8 8 13 16 -39 9
-58z m-1049 -172 c-7 -16 -15 -31 -19 -34 -3 -3 -12 -20 -20 -37 -8 -18 -17
-33 -21 -33 -5 0 -7 -3 -6 -7 3 -8 -69 -134 -81 -143 -3 -3 -20 -23 -36 -45
-62 -83 -128 -157 -268 -300 l-118 -120 6 65 c15 157 25 223 36 235 5 5 9 5 9
1 0 -5 11 3 25 18 20 21 23 31 15 46 -9 16 -6 18 24 15 40 -4 91 24 99 53 3
13 -4 33 -19 53 -13 18 -24 34 -24 36 0 5 43 -2 55 -8 8 -5 73 -5 97 0 8 1 23
40 27 70 0 5 18 12 38 16 22 4 50 20 71 41 33 33 34 35 17 54 -10 11 -25 20
-33 20 -26 0 -9 8 31 14 21 3 50 13 65 20 35 19 46 7 30 -30z m-791 -418 c39
5 45 4 37 -7 -8 -11 -39 -126 -36 -136 0 -2 -4 -17 -9 -35 -6 -18 -12 -40 -14
-48 -1 -8 -8 -33 -13 -55 -6 -22 -13 -51 -16 -65 -2 -14 -12 -54 -21 -90 -17
-69 -23 -93 -30 -125 -2 -11 -6 -29 -9 -40 -10 -45 -48 -211 -51 -228 -2 -10
-7 -28 -11 -40 -4 -12 -8 -33 -10 -47 -1 -14 -9 -51 -17 -82 -8 -32 -12 -58
-10 -58 2 0 1 -6 -4 -12 -4 -7 -8 -17 -9 -23 -1 -5 -5 -26 -8 -45 -4 -19 -9
-43 -12 -53 -3 -11 -7 -29 -9 -40 -3 -27 -45 -222 -54 -256 -9 -32 -23 -36
-47 -14 -37 35 -67 87 -191 336 -124 252 -125 252 -208 334 l-84 82 41 78 c23
43 45 80 50 81 4 2 8 10 8 18 0 11 64 130 100 184 19 29 94 175 96 188 6 36
33 59 69 60 21 1 57 11 80 22 26 12 53 19 67 15 81 -20 171 -9 221 27 25 18
28 26 24 54 -5 31 -4 33 14 24 10 -6 39 -8 66 -4z m-1243 -161 c-13 -69 41
-88 139 -50 29 12 38 12 42 3 2 -7 11 -37 20 -67 l17 -53 -48 -99 c-27 -54
-51 -95 -54 -91 -3 5 -27 16 -55 27 -110 40 -376 177 -383 196 -2 5 -11 9 -20
9 -12 0 -8 8 14 31 53 56 82 71 147 76 51 5 92 16 185 52 2 0 0 -15 -4 -34z
m682 -3101 c-4 -12 -1 -14 14 -9 12 4 20 2 20 -5 0 -6 -4 -8 -10 -5 -5 3 -10
-2 -10 -12 0 -10 -4 -14 -8 -8 -4 6 -13 10 -21 10 -8 0 -15 6 -17 13 -1 7 0 8
3 2 5 -12 24 -14 22 -2 -3 15 1 32 7 32 3 0 3 -7 0 -16z m163 -85 c-16 -10
-23 -4 -14 10 3 6 11 8 17 5 6 -4 5 -9 -3 -15z"/>
<path d="M5370 720 c0 -6 4 -9 9 -6 5 4 12 1 14 -4 3 -6 4 -5 3 2 -3 15 -26
23 -26 8z"/>
<path d="M5435 719 c-5 -8 -5 -11 0 -7 4 4 13 0 20 -9 10 -13 13 -14 20 -2 5
8 5 11 0 7 -4 -4 -13 0 -20 9 -10 13 -13 14 -20 2z"/>
<path d="M5422 690 c13 -20 28 -27 28 -12 0 4 -9 13 -20 20 -19 12 -20 11 -8
-8z"/>
<path d="M5497 699 c7 -7 15 -10 18 -7 3 3 -2 9 -12 12 -14 6 -15 5 -6 -5z"/>
<path d="M3555 591 c-3 -5 -2 -12 3 -15 5 -3 9 1 9 9 0 17 -3 19 -12 6z"/>
<path d="M3593 565 c0 -8 4 -12 9 -9 5 3 6 10 3 15 -9 13 -12 11 -12 -6z"/>
<path d="M3676 559 c4 -8 30 -6 38 2 3 3 -5 5 -19 5 -13 0 -22 -3 -19 -7z"/>
<path d="M3629 523 c-13 -16 -12 -17 4 -4 16 13 21 21 13 21 -2 0 -10 -8 -17
-17z"/>
<path d="M3753 525 c0 -8 4 -12 9 -9 5 3 6 10 3 15 -9 13 -12 11 -12 -6z"/>
<path d="M5669 523 c-13 -16 -12 -17 4 -4 16 13 21 21 13 21 -2 0 -10 -8 -17
-17z"/>
<path d="M3707 519 c7 -7 15 -10 18 -7 3 3 -2 9 -12 12 -14 6 -15 5 -6 -5z"/>
<path d="M4875 504 c4 -16 7 -34 7 -41 1 -8 12 -5 30 8 25 18 29 18 34 5 3 -9
11 -16 17 -16 5 0 2 9 -7 19 -20 21 -43 22 -57 0 -8 -10 -9 -9 -4 7 3 13 -1
26 -10 34 -14 12 -15 10 -10 -16z"/>
<path d="M5475 521 c-3 -5 -2 -12 3 -15 5 -3 9 1 9 9 0 17 -3 19 -12 6z"/>
<path d="M5519 513 c-13 -16 -12 -17 4 -4 9 7 17 15 17 17 0 8 -8 3 -21 -13z"/>
<path d="M4067 492 c-15 -16 -15 -19 -2 -19 8 0 13 3 10 5 -3 3 0 11 6 19 17
20 5 16 -14 -5z"/>
<path d="M4135 492 c-8 -21 -3 -22 17 -2 14 13 15 17 3 17 -8 0 -17 -7 -20
-15z"/>
<path d="M4205 500 c-3 -5 -3 -10 2 -10 4 0 1 -5 -7 -10 -8 -5 -10 -10 -4 -10
17 0 37 27 25 34 -5 4 -12 2 -16 -4z"/>
<path d="M5435 501 c-3 -5 -2 -12 3 -15 5 -3 9 1 9 9 0 17 -3 19 -12 6z"/>
<path d="M4464 475 c11 -8 22 -12 25 -9 6 6 -19 24 -34 24 -5 -1 -1 -7 9 -15z"/>
<path d="M4735 479 c-4 -6 -4 -13 -1 -17 11 -10 45 -12 50 -3 3 4 -6 7 -20 5
-19 -2 -24 1 -20 12 6 16 0 19 -9 3z"/>
<path d="M4113 463 c4 -3 1 -13 -6 -22 -11 -14 -10 -14 5 -2 16 12 16 31 1 31
-4 0 -3 -3 0 -7z"/>
<path d="M4313 452 c0 -10 7 -19 14 -19 9 0 10 4 3 12 -5 7 -7 15 -3 18 3 4 1
7 -5 7 -6 0 -10 -8 -9 -18z"/>
<path d="M4346 462 c-3 -4 4 -9 15 -9 23 -2 25 3 4 10 -8 4 -16 3 -19 -1z"/>
<path d="M4437 455 c-4 -8 -3 -16 1 -19 4 -3 9 4 9 15 2 23 -3 25 -10 4z"/>
<path d="M5054 439 c0 -12 4 -15 12 -9 6 6 14 7 17 3 4 -3 7 -2 7 4 0 6 -8 13
-18 15 -12 4 -18 -1 -18 -13z"/>
<path d="M4546 438 c3 -5 10 -6 15 -3 13 9 11 12 -6 12 -8 0 -12 -4 -9 -9z"/>
<path d="M4790 440 c0 -5 5 -10 11 -10 5 0 7 5 4 10 -3 6 -8 10 -11 10 -2 0
-4 -4 -4 -10z"/>
<path d="M4914 428 l-19 -23 25 20 c14 11 27 21 29 22 2 2 0 3 -6 3 -5 0 -18
-10 -29 -22z"/>
<path d="M4990 440 c0 -5 5 -10 11 -10 5 0 7 5 4 10 -3 6 -8 10 -11 10 -2 0
-4 -4 -4 -10z"/>
<path d="M4282 424 c10 -10 20 -16 22 -13 3 3 -5 11 -17 18 -21 13 -21 12 -5
-5z"/>
<path d="M4467 426 c-4 -10 -1 -13 8 -9 8 3 12 9 9 14 -7 12 -11 11 -17 -5z"/>
<path d="M4575 430 c-3 -6 1 -7 9 -4 18 7 21 14 7 14 -6 0 -13 -4 -16 -10z"/>
<path d="M4735 430 c-3 -6 1 -7 9 -4 18 7 21 14 7 14 -6 0 -13 -4 -16 -10z"/>
<path d="M4119 428 c-5 -18 -6 -38 -1 -34 7 8 12 36 6 36 -2 0 -4 -1 -5 -2z"/>
<path d="M4388 419 c6 -9 9 -18 6 -22 -3 -3 1 -4 10 -3 8 1 18 5 21 9 3 4 2 5
-2 2 -3 -3 -16 3 -27 12 -15 14 -18 14 -8 2z"/>
<path d="M4508 423 c7 -3 16 -2 19 1 4 3 -2 6 -13 5 -11 0 -14 -3 -6 -6z"/>
<path d="M4831 413 c7 -12 15 -20 18 -17 3 2 -3 12 -13 22 -17 16 -18 16 -5
-5z"/>
<path d="M5376 422 c-3 -5 1 -9 9 -9 8 0 12 4 9 9 -3 4 -7 8 -9 8 -2 0 -6 -4
-9 -8z"/>
<path d="M4335 400 c2 -27 10 -33 12 -10 1 11 -2 22 -6 24 -4 3 -7 -4 -6 -14z"/>
<path d="M4539 418 c-5 -18 -6 -38 -1 -34 7 8 12 36 6 36 -2 0 -4 -1 -5 -2z"/>
<path d="M3945 400 c-3 -6 1 -7 9 -4 18 7 21 14 7 14 -6 0 -13 -4 -16 -10z"/>
<path d="M4489 397 c6 -8 7 -18 3 -22 -4 -5 -1 -5 6 -1 10 6 10 11 1 22 -6 8
-14 14 -16 14 -3 0 0 -6 6 -13z"/>
<path d="M4665 399 c-3 -4 2 -6 10 -5 21 3 28 13 10 13 -9 0 -18 -4 -20 -8z"/>
<path d="M4730 401 c0 -6 4 -13 10 -16 6 -3 7 1 4 9 -7 18 -14 21 -14 7z"/>
<path d="M5066 398 c3 -5 10 -6 15 -3 13 9 11 12 -6 12 -8 0 -12 -4 -9 -9z"/>
<path d="M4995 391 c-3 -5 -2 -12 3 -15 5 -3 9 1 9 9 0 17 -3 19 -12 6z"/>
<path d="M4250 379 c0 -5 5 -7 10 -4 6 3 10 8 10 11 0 2 -4 4 -10 4 -5 0 -10
-5 -10 -11z"/>
<path d="M4734 356 c1 -8 5 -18 8 -22 4 -3 5 1 4 10 -1 8 -5 18 -8 22 -4 3 -5
-1 -4 -10z"/>
<path d="M4810 360 c0 -5 5 -10 11 -10 5 0 7 5 4 10 -3 6 -8 10 -11 10 -2 0
-4 -4 -4 -10z"/>
</g>
</svg>
